<svg id="Layer_1" data-name="Layer 1" xmlns="http://www.w3.org/2000/svg" viewBox="0 0 359.2 408.81"><path d="M76.64,408.81c-7.35-2-14.29-4.8-19.86-10.33-6.94-6.9-10.26-15.38-11.05-24.94-1.72-20.79-3.31-41.59-5-62.39s-3.56-41.57-5.29-62.36c-1.47-17.62-2.82-35.24-4.27-52.85s-3-35.23-4.47-52.84c-.62-7.28-1.34-14.56-1.77-21.86-.13-2.28-.79-3.46-3-4.41A35.52,35.52,0,0,1,.75,76.52,35.86,35.86,0,0,1,35.86,48c18.36-.12,36.72,0,55.08,0h4.87c0-3.64,0-7,0-10.45,0-22,15.43-37.42,37.33-37.45q46.5,0,93,0c21.9,0,37.28,15.49,37.33,37.46,0,3.3,0,6.61,0,10.44h4.47c18.23,0,36.45-.05,54.68,0,21.56.08,37.65,16.6,36.52,38.11-.73,14-8.06,24.22-20.7,30.3-2.72,1.32-3.89,2.51-4.14,5.69-2.69,33.64-5.64,67.27-8.44,100.91-2,23.7-3.79,47.42-5.77,71.13-2.3,27.54-4.36,55.11-7.17,82.6-1.64,16.11-12.08,27.15-27.66,31.28-.88.24-1.75.57-2.62.85ZM310.19,120.07H49.1c1,12.89,2,25.47,3.06,38.05q2.22,26.82,4.48,53.64c1.44,17.35,2.83,34.71,4.27,52.06q2.23,27.21,4.53,54.43c1.48,17.61,2.79,35.24,4.52,52.83,1.05,10.7,4.85,13.78,15.48,13.78h188.4c1.33,0,2.67.06,4-.07,6.15-.61,10.72-4.75,11.23-10.52,1.67-19.2,3.23-38.41,4.83-57.62Q296,291,298.13,265.39q2.25-27,4.52-54c1.22-14.57,2.48-29.13,3.68-43.7C307.63,151.9,308.89,136.14,310.19,120.07ZM179.46,95.83q70.26,0,140.5,0A25,25,0,0,0,327,95a11.67,11.67,0,0,0,5.34-18.73c-3.14-3.71-7.3-4.42-11.86-4.42q-140.89,0-281.8.06a22.49,22.49,0,0,0-6.29.75,11.69,11.69,0,0,0-5.14,19.24c3.07,3.29,7,4,11.27,4Q109,95.81,179.46,95.83Zm60.07-48.07V38.68C239.5,28.59,235,24,225,24q-13.17,0-26.33,0-32.52,0-65,0c-7.71,0-12.8,3.8-13.59,10.64-.5,4.28-.1,8.66-.1,13.15Z" transform="translate(0 0)"/><path d="M131.65,346.12c.24,9.37-4.28,14.87-12.12,14.78a11.71,11.71,0,0,1-11.69-10.83c-1.14-16.44-2.16-32.88-3.2-49.33q-1.89-29.83-3.73-59.67-1.75-28.44-3.47-56.9c-.54-8.88-1.23-17.76-1.57-26.66-.31-8.07,4.2-13.44,11.13-13.76,7.37-.34,12.29,4.46,12.81,12.61q2.86,45.75,5.7,91.5,3,48.33,6.14,96.67C131.68,345.05,131.65,345.59,131.65,346.12Z" transform="translate(0 0)"/><path d="M227.56,345.94c1.28-19.95,2.55-39.44,3.76-58.94,1.18-19,2.28-37.93,3.46-56.9q1.83-29.43,3.72-58.87c.34-5.31.67-10.61,1-15.92.48-7.07,5.66-11.82,12.59-11.56a11.54,11.54,0,0,1,11.28,12.41c-.7,15.53-1.72,31.05-2.67,46.56-.92,15-1.91,30-2.86,45q-1.89,30-3.76,60.07-1.28,20.29-2.56,40.58c-.53,8.12-5.47,12.92-12.85,12.56-6.8-.34-11.2-5.65-11.14-13.42C227.57,346.81,227.56,346.15,227.56,345.94Z" transform="translate(0 0)"/><path d="M167.67,251.91q0-47.9,0-95.77c0-6.51,4.26-11.57,10.18-12.34a11.87,11.87,0,0,1,13.22,8.45,15.19,15.19,0,0,1,.51,4.31q0,95.77,0,191.54c0,7.51-4.85,12.72-11.77,12.8-7.15.07-12.15-5.14-12.15-12.82Q167.65,300,167.67,251.91Z" transform="translate(0 0)"/></svg>