<svg id="Layer_1" data-name="Layer 1" xmlns="http://www.w3.org/2000/svg" viewBox="0 0 369.79 382.99"><path d="M149,383c-6.44-3-8.58-8.11-8.33-15.07.38-10.56.1-21.14.1-32h88.31v8.45c0,7.84-.3,15.71.09,23.54.34,7-1.86,12.07-8.31,15.07Z"/><path d="M332.78,117.27c-3.22,19-6.29,37.14-9.36,55.3q-10.32,61-20.63,122c-.85,5-1.92,10.05-2.48,15.12-.33,3-1.59,3.57-4.32,3.56-27.31-.09-54.63-.05-82-.05q-69.6,0-139.21.06c-3.4,0-4.83-.56-5.47-4.42q-15.42-93.1-31.25-186.14c-.27-1.6-.61-3.18-1-5.33-3.87,2.39-7.53,4.65-11.18,6.93-2.65,1.64-5.25,3.35-7.92,5C11.86,133,5,131.61,1.66,126s-1.57-12,4.43-15.75Q58.74,77.08,111.44,43.94c21.84-13.74,43.73-27.38,65.48-41.27C182.44-.86,187.3-.9,192.84,2.6Q278.06,56.38,363.39,110c4.54,2.85,7.12,6.71,6.23,12.15-.78,4.72-3.69,8.28-8.42,8.85a17,17,0,0,1-9.48-1.94C345.4,125.61,339.47,121.48,332.78,117.27ZM184.93,106a44.16,44.16,0,1,0,44.16,44.36A44.31,44.31,0,0,0,184.93,106Zm-.48,152.7c9.85,0,19.7,0,29.55,0,7,0,12-4.64,12.09-11.06s-5-11.36-12.15-11.37q-29.16-.06-58.34,0c-7.18,0-12.34,4.77-12.32,11.24s5.16,11.17,12.37,11.2C165.25,258.76,174.85,258.73,184.45,258.73Z"/><path d="M163.23,150.14a21.7,21.7,0,1,1,21.55,21.75A21.77,21.77,0,0,1,163.23,150.14Z"/></svg>