<svg id="Layer_1" data-name="Layer 1" xmlns="http://www.w3.org/2000/svg" viewBox="0 0 383.38 346.01"><path d="M-112.7,261.29v-4.72q.12-135.49.28-271a31.17,31.17,0,0,1,.67-8.15A15.78,15.78,0,0,1-95.34-34,15.87,15.87,0,0,1-80.76-20.75a41.6,41.6,0,0,1,.45,6.7q-.09,135.5-.22,271v4.73l1.74,1.33c.59-1.23.92-2.73,1.83-3.65,16.27-16.38,32.67-32.62,48.9-49,11-11.16,25.27-2.76,27.67,8C.87,223.92-1,228.6-4.9,232.57c-6.74,6.84-13.55,13.62-20.34,20.41q-29.09,29.13-58.19,58.26c-8.6,8.6-17.41,8.59-26,0q-38.61-38.65-77.22-77.33c-6.85-6.86-7.62-15.74-2.11-22.53,6.08-7.48,16.82-7.94,24.07-.81,11.11,10.94,22.1,22,33.12,33,6,6,11.93,12,17.89,18Z"/><path d="M0,101.38c1.26-6.95,2.11-14,3.84-20.85,7.74-30.67,23.8-55.59,52.88-69.63C91.68-6,126-3,158.64,17.93c2.41,1.54,4.7,3.27,7.39,5.15q-3.81,11.55-7.66,23.18c-2.93,8.85-5.8,17.72-8.88,26.51-.82,2.32-.57,3.82,1.23,5.56,6.28,6.06,12.3,12.4,18.61,18.42,2,1.92,2,3.35.84,5.72-6.74,13.19-13.2,26.51-20,39.68-1.22,2.39-1,3.88.6,5.93,8.76,11.47,17.36,23,26.72,35.53-.23-2-.23-2.9-.44-3.75-2.8-11.21-5.59-22.43-8.51-33.61-.64-2.45-.1-4.06,1.73-5.85,13-12.78,25.81-25.68,38.77-38.61L188,81.34c1-1.7,1.51-2.66,2.11-3.55q20.7-31.13,41.5-62.18a13.37,13.37,0,0,1,4.93-4.23C276.66-8.94,324.38-.78,354.06,31.6c15.63,17,24.08,37.53,27.65,60.18,6.64,42.21-7,78.48-32.54,111.32-18,23.16-38.74,43.68-60.82,62.81-30.71,26.62-62,52.64-93,78.92-.47.39-1,.7-1.71,1.18l-29.32-24.94c-28.49-24.24-57.19-48.24-85.42-72.79-20.35-17.7-39.55-36.62-54.92-59C11.12,170.48,2.66,150,.67,127.09a14.91,14.91,0,0,0-.67-2.5Zm241.59.32c-1.39,1.2-2.49,2-3.46,3q-21.45,21.42-42.92,42.82a5,5,0,0,0-1.52,5.52q14.61,57.86,29,115.76c1.42,5.67,2.8,11.34,4.2,17a4.42,4.42,0,0,1-2.27-1.71q-50.25-67-100.56-134a4.36,4.36,0,0,1-.45-5.33c6.5-12.75,12.82-25.58,19.31-38.33,1-2,.94-3.22-.74-4.83-5.67-5.44-11.07-11.16-16.76-16.58-2.15-2-2.74-3.78-1.7-6.76,4.95-14.19,9.53-28.52,14.42-42.74.84-2.44.4-3.48-1.87-4.55A76.55,76.55,0,0,0,108,23.37C75.34,21.47,49.69,34,34.71,63.08c-19.07,37-16.37,74.06,5.48,109.46C53,193.33,70.24,210.46,88.47,226.41c28.81,25.21,58.15,49.81,87.27,74.65,6,5.16,12.14,10.27,18.18,15.37.7-.5,1.12-.76,1.5-1.08,31.36-27,63-53.72,94-81.23,19-16.91,36.37-35.58,50.54-56.94,20.66-31.12,26.88-64.51,14.9-100.33-16.42-49.08-65.42-63.73-103-47.54a10.66,10.66,0,0,0-4.48,3.59c-9.43,13.92-18.72,28-28,42-.6.9-1.1,1.86-1.8,3.06Z"/></svg>