<svg id="Layer_1" data-name="Layer 1" xmlns="http://www.w3.org/2000/svg" viewBox="0 0 192.42 351.74"><path d="M79.72,295.35v-4.72q.12-135.49.28-271a31.6,31.6,0,0,1,.67-8.15,15.92,15.92,0,0,1,31,1.83,40.49,40.49,0,0,1,.45,6.7q-.09,135.5-.22,271v4.72l1.74,1.33c.6-1.23.92-2.73,1.83-3.65,16.27-16.38,32.67-32.61,48.9-49,11-11.16,25.27-2.76,27.67,8,1.26,5.64-.6,10.32-4.51,14.29-6.74,6.85-13.55,13.62-20.34,20.41Q138.09,316.17,109,345.3c-8.6,8.6-17.41,8.59-26,0Q44.35,306.63,5.75,267.94c-6.84-6.86-7.62-15.74-2.11-22.52,6.08-7.49,16.82-7.95,24.07-.82,11.11,10.94,22.1,22,33.12,33,6,6,11.93,12,17.89,18.05Z"/></svg>