<svg id="Layer_1" data-name="Layer 1" xmlns="http://www.w3.org/2000/svg" viewBox="0 0 341.48 283.97"><path d="M170.91,284a19.71,19.71,0,0,1-10.08-2.89c-35.16-20.75-65.06-42.25-91.38-65.73-20.26-18.06-35.08-34.54-46.67-51.85-12.25-18.31-19.11-34.83-21.58-52C1,110,.77,108.45.55,106.92l-.41-3a14.71,14.71,0,0,1-.14-2v-5.5a14.4,14.4,0,0,1,.23-2.55l.18-1c.15-.86.3-1.73.46-2.59.33-1.74.62-3.65.9-5.49l0-.12A100.78,100.78,0,0,1,4.93,69.48,98.21,98.21,0,0,1,39.84,20,97.32,97.32,0,0,1,97,.12l2.27,0c28.57,0,52.64,10.05,71.7,29.91A99.52,99.52,0,0,1,335.06,64.25a97.39,97.39,0,0,1-2.26,74.93c-9.81,21.9-24.52,42-46.28,63.41-28.49,28-63,53.64-105.49,78.49A19.9,19.9,0,0,1,170.91,284Zm1.2-21.79h0ZM22,101.42l.34,2.46c.21,1.5.42,3,.64,4.49,2,13.79,7.73,27.42,18.09,42.9,10.52,15.72,24.19,30.87,43,47.67,25,22.27,53.4,42.74,86.85,62.55,40.44-23.73,73.21-48.14,100.17-74.6,19.73-19.37,33-37.39,41.62-56.7a75.61,75.61,0,0,0,1.77-58.12A77.84,77.84,0,0,0,223,24.33a77.88,77.88,0,0,0-43.19,29.15A11,11,0,0,1,171,57.93h-.06a11,11,0,0,1-8.76-4.35C146.07,32.4,125.48,22.1,99.22,22.1l-1.84,0a75.53,75.53,0,0,0-44.3,15.4A76.49,76.49,0,0,0,25.93,76,83,83,0,0,0,23.53,88v.12c-.31,2-.63,4.09-1,6.18-.15.79-.29,1.59-.43,2.39l-.08.45Zm-.07-.52h0Zm0-3.21v0A.06.06,0,0,1,21.9,97.69Z"/></svg>